<?xml version="1.0" encoding="utf-8"?>
<!-- Generator: Adobe Illustrator 24.1.0, SVG Export Plug-In . SVG Version: 6.00 Build 0)  -->
<svg version="1.1" id="Layer_1" xmlns="http://www.w3.org/2000/svg" xmlns:xlink="http://www.w3.org/1999/xlink" x="0px" y="0px"
	 viewBox="0 0 738.86 178.2" style="enable-background:new 0 0 738.86 178.2;" xml:space="preserve">
<style type="text/css">
	.st0{fill:#D8BB98;}
	.st1{fill:#EFD0AB;}
	.st2{fill:#070808;}
	.st3{font-family:'AmericanTypewriter';}
	.st4{font-size:117.136px;}
</style>
<g>
	
		<rect x="384.29" y="7" transform="matrix(0.0419 -0.9991 0.9991 0.0419 359.2876 552.9866)" class="st0" width="167.39" height="164.29"/>
	
		<rect x="392.82" y="11.33" transform="matrix(0.0419 -0.9991 0.9991 0.0419 360.5756 554.7901)" class="st1" width="153.52" height="156.1"/>
	<text transform="matrix(0.9991 0.0419 -0.0419 0.9991 427.0869 131.7483)" class="st2 st3 st4">V</text>
</g>
<g>
	
		<rect x="5.24" y="5.13" transform="matrix(0.9979 -0.0646 0.0646 0.9979 -5.5566 5.8313)" class="st0" width="164.29" height="167.39"/>
	
		<rect x="10.93" y="12.12" transform="matrix(0.9979 -0.0646 0.0646 0.9979 -5.5571 5.9349)" class="st1" width="156.1" height="153.52"/>
	<text transform="matrix(0.9979 -0.0646 0.0646 0.9979 51.225 135.5333)" class="st2 st3 st4">L</text>
</g>
<g>
	<rect x="198.52" y="5.29" class="st0" width="164.29" height="167.39"/>
	<rect x="204.21" y="12.39" class="st1" width="156.1" height="153.52"/>
	<text transform="matrix(1 0 0 1 236.0083 133.2573)" class="st2 st3 st4">O</text>
</g>
<rect x="572.94" y="5.13" transform="matrix(0.9998 -0.0195 0.0195 0.9998 -1.6105 12.816)" class="st0" width="164.29" height="167.39"/>
<rect x="578.64" y="12.2" transform="matrix(0.9998 -0.0195 0.0195 0.9998 -1.6127 12.847)" class="st1" width="156.1" height="153.52"/>
<text transform="matrix(0.9998 -0.0195 0.0195 0.9998 616.8942 133.8501)" class="st2 st3 st4">E</text>
</svg>
